<mxfile host="app.diagrams.net" modified="2021-01-14T02:16:53.553Z" agent="5.0 (Windows NT 10.0; Win64; x64) AppleWebKit/537.36 (KHTML, like Gecko) Chrome/87.0.4280.141 Safari/537.36" etag="1M0tR1fb4ZALvPsSKoRV" version="14.2.2" type="github">
  <diagram id="WlpuBGJG7gNHnUedRJI3" name="Page-1">
    <mxGraphModel dx="1422" dy="762" grid="1" gridSize="10" guides="1" tooltips="1" connect="1" arrows="1" fold="1" page="1" pageScale="1" pageWidth="827" pageHeight="1169" math="0" shadow="0">
      <root>
        <mxCell id="0" />
        <mxCell id="1" parent="0" />
        <mxCell id="r3bSi6JXldeUcfmKqR_b-22" style="edgeStyle=orthogonalEdgeStyle;rounded=0;orthogonalLoop=1;jettySize=auto;html=1;exitX=1;exitY=0.5;exitDx=0;exitDy=0;entryX=0;entryY=0.5;entryDx=0;entryDy=0;" edge="1" parent="1" source="r3bSi6JXldeUcfmKqR_b-18" target="r3bSi6JXldeUcfmKqR_b-20">
          <mxGeometry relative="1" as="geometry" />
        </mxCell>
        <mxCell id="r3bSi6JXldeUcfmKqR_b-18" value="" style="rounded=0;whiteSpace=wrap;html=1;fillColor=#EFFF9E;" vertex="1" parent="1">
          <mxGeometry x="120" y="360" width="640" height="180" as="geometry" />
        </mxCell>
        <mxCell id="r3bSi6JXldeUcfmKqR_b-2" style="edgeStyle=orthogonalEdgeStyle;rounded=0;orthogonalLoop=1;jettySize=auto;html=1;" edge="1" parent="1" source="r3bSi6JXldeUcfmKqR_b-1">
          <mxGeometry relative="1" as="geometry">
            <mxPoint x="414" y="200" as="targetPoint" />
          </mxGeometry>
        </mxCell>
        <mxCell id="r3bSi6JXldeUcfmKqR_b-1" value="Actor" style="shape=umlActor;verticalLabelPosition=bottom;verticalAlign=top;html=1;" vertex="1" parent="1">
          <mxGeometry x="399" y="30" width="30" height="60" as="geometry" />
        </mxCell>
        <mxCell id="r3bSi6JXldeUcfmKqR_b-5" style="edgeStyle=orthogonalEdgeStyle;rounded=0;orthogonalLoop=1;jettySize=auto;html=1;" edge="1" parent="1" source="r3bSi6JXldeUcfmKqR_b-4">
          <mxGeometry relative="1" as="geometry">
            <mxPoint x="210" y="410" as="targetPoint" />
          </mxGeometry>
        </mxCell>
        <mxCell id="r3bSi6JXldeUcfmKqR_b-7" style="edgeStyle=orthogonalEdgeStyle;rounded=0;orthogonalLoop=1;jettySize=auto;html=1;exitX=0.5;exitY=1;exitDx=0;exitDy=0;entryX=0.5;entryY=0;entryDx=0;entryDy=0;" edge="1" parent="1" source="r3bSi6JXldeUcfmKqR_b-4" target="r3bSi6JXldeUcfmKqR_b-8">
          <mxGeometry relative="1" as="geometry">
            <mxPoint x="414" y="410" as="targetPoint" />
          </mxGeometry>
        </mxCell>
        <mxCell id="r3bSi6JXldeUcfmKqR_b-9" style="edgeStyle=orthogonalEdgeStyle;rounded=0;orthogonalLoop=1;jettySize=auto;html=1;entryX=0.5;entryY=0;entryDx=0;entryDy=0;" edge="1" parent="1" source="r3bSi6JXldeUcfmKqR_b-4" target="r3bSi6JXldeUcfmKqR_b-10">
          <mxGeometry relative="1" as="geometry">
            <mxPoint x="630" y="420" as="targetPoint" />
          </mxGeometry>
        </mxCell>
        <mxCell id="r3bSi6JXldeUcfmKqR_b-19" style="edgeStyle=orthogonalEdgeStyle;rounded=0;orthogonalLoop=1;jettySize=auto;html=1;entryX=0.583;entryY=-0.033;entryDx=0;entryDy=0;entryPerimeter=0;" edge="1" parent="1" source="r3bSi6JXldeUcfmKqR_b-4" target="r3bSi6JXldeUcfmKqR_b-20">
          <mxGeometry relative="1" as="geometry">
            <mxPoint x="840" y="430" as="targetPoint" />
          </mxGeometry>
        </mxCell>
        <mxCell id="r3bSi6JXldeUcfmKqR_b-4" value="" style="image;html=1;image=img/lib/clip_art/networking/Firewall_02_128x128.png" vertex="1" parent="1">
          <mxGeometry x="354" y="190" width="120" height="90" as="geometry" />
        </mxCell>
        <mxCell id="r3bSi6JXldeUcfmKqR_b-14" style="edgeStyle=orthogonalEdgeStyle;rounded=0;orthogonalLoop=1;jettySize=auto;html=1;entryX=0;entryY=0.5;entryDx=0;entryDy=0;" edge="1" parent="1" source="r3bSi6JXldeUcfmKqR_b-6" target="r3bSi6JXldeUcfmKqR_b-8">
          <mxGeometry relative="1" as="geometry" />
        </mxCell>
        <mxCell id="r3bSi6JXldeUcfmKqR_b-15" style="edgeStyle=orthogonalEdgeStyle;rounded=0;orthogonalLoop=1;jettySize=auto;html=1;" edge="1" parent="1" source="r3bSi6JXldeUcfmKqR_b-6" target="r3bSi6JXldeUcfmKqR_b-10">
          <mxGeometry relative="1" as="geometry">
            <Array as="points">
              <mxPoint x="210" y="560" />
            </Array>
          </mxGeometry>
        </mxCell>
        <mxCell id="r3bSi6JXldeUcfmKqR_b-6" value="provider-user" style="rounded=0;whiteSpace=wrap;html=1;" vertex="1" parent="1">
          <mxGeometry x="150" y="420" width="120" height="60" as="geometry" />
        </mxCell>
        <mxCell id="r3bSi6JXldeUcfmKqR_b-16" style="edgeStyle=orthogonalEdgeStyle;rounded=0;orthogonalLoop=1;jettySize=auto;html=1;entryX=0;entryY=0.5;entryDx=0;entryDy=0;" edge="1" parent="1" source="r3bSi6JXldeUcfmKqR_b-8" target="r3bSi6JXldeUcfmKqR_b-10">
          <mxGeometry relative="1" as="geometry" />
        </mxCell>
        <mxCell id="r3bSi6JXldeUcfmKqR_b-17" value="X" style="edgeLabel;html=1;align=center;verticalAlign=middle;resizable=0;points=[];" vertex="1" connectable="0" parent="r3bSi6JXldeUcfmKqR_b-16">
          <mxGeometry x="-0.3702" y="-3" relative="1" as="geometry">
            <mxPoint y="36" as="offset" />
          </mxGeometry>
        </mxCell>
        <mxCell id="r3bSi6JXldeUcfmKqR_b-8" value="provider-order" style="rounded=0;whiteSpace=wrap;html=1;" vertex="1" parent="1">
          <mxGeometry x="354" y="420" width="120" height="60" as="geometry" />
        </mxCell>
        <mxCell id="r3bSi6JXldeUcfmKqR_b-10" value="provider-pay" style="rounded=0;whiteSpace=wrap;html=1;" vertex="1" parent="1">
          <mxGeometry x="580" y="420" width="120" height="60" as="geometry" />
        </mxCell>
        <mxCell id="r3bSi6JXldeUcfmKqR_b-12" value="授权服务器" style="ellipse;whiteSpace=wrap;html=1;" vertex="1" parent="1">
          <mxGeometry x="1030" y="410" width="120" height="80" as="geometry" />
        </mxCell>
        <mxCell id="r3bSi6JXldeUcfmKqR_b-21" style="edgeStyle=orthogonalEdgeStyle;rounded=0;orthogonalLoop=1;jettySize=auto;html=1;entryX=0;entryY=0.5;entryDx=0;entryDy=0;" edge="1" parent="1" source="r3bSi6JXldeUcfmKqR_b-20" target="r3bSi6JXldeUcfmKqR_b-12">
          <mxGeometry relative="1" as="geometry" />
        </mxCell>
        <mxCell id="r3bSi6JXldeUcfmKqR_b-20" value="SSO server" style="rounded=0;whiteSpace=wrap;html=1;" vertex="1" parent="1">
          <mxGeometry x="800" y="420" width="120" height="60" as="geometry" />
        </mxCell>
      </root>
    </mxGraphModel>
  </diagram>
</mxfile>
